<?xml version="1.0" encoding="UTF-8" standalone="no"?>
<svg
   xmlns:dc="http://purl.org/dc/elements/1.1/"
   xmlns:cc="http://creativecommons.org/ns#"
   xmlns:rdf="http://www.w3.org/1999/02/22-rdf-syntax-ns#"
   xmlns:svg="http://www.w3.org/2000/svg"
   xmlns="http://www.w3.org/2000/svg"
   xmlns:xlink="http://www.w3.org/1999/xlink"
   xmlns:sodipodi="http://sodipodi.sourceforge.net/DTD/sodipodi-0.dtd"
   xmlns:inkscape="http://www.inkscape.org/namespaces/inkscape"
   height="60"
   viewBox="0 0 30 30"
   width="60"
   id="svg2"
   version="1.1"
   inkscape:version="0.91 r13725"
   sodipodi:docname="up.svg"
   inkscape:export-filename="/home/lliurex/svn/lliurex-up/trunk/fuentes/lliurex-up-gui/rsrc/up.png"
   inkscape:export-xdpi="90"
   inkscape:export-ydpi="90"
   style="fill:#000000">
  <metadata
     id="metadata12">
    <rdf:RDF>
      <cc:Work
         rdf:about="">
        <dc:format>image/svg+xml</dc:format>
        <dc:type
           rdf:resource="http://purl.org/dc/dcmitype/StillImage" />
        <dc:title></dc:title>
      </cc:Work>
    </rdf:RDF>
  </metadata>
  <defs
     id="defs10">
    <linearGradient
       inkscape:collect="always"
       xlink:href="#linearGradient4477"
       id="linearGradient6194"
       gradientUnits="userSpaceOnUse"
       x1="22.59375"
       y1="1050.7997"
       x2="26.75"
       y2="1050.7684"
       gradientTransform="matrix(0.65508799,0,0,0.49850631,0.7847419,-499.58701)" />
    <linearGradient
       id="linearGradient4477"
       inkscape:collect="always">
      <stop
         id="stop4479"
         offset="0"
         style="stop-color:#e12d37;stop-opacity:1;" />
      <stop
         id="stop4481"
         offset="1"
         style="stop-color:#7d0f19;stop-opacity:1" />
    </linearGradient>
    <linearGradient
       inkscape:collect="always"
       xlink:href="#linearGradient4461"
       id="linearGradient6197"
       gradientUnits="userSpaceOnUse"
       x1="27.09375"
       y1="1047.0966"
       x2="27.59375"
       y2="1046.0497"
       gradientTransform="matrix(0.65508798,0,0,0.49850631,0.7847345,-499.587)" />
    <linearGradient
       id="linearGradient4461"
       inkscape:collect="always">
      <stop
         id="stop4463"
         offset="0"
         style="stop-color:#f5f5f5;stop-opacity:1;" />
      <stop
         id="stop4465"
         offset="1"
         style="stop-color:#d9ffff;stop-opacity:1" />
    </linearGradient>
    <linearGradient
       inkscape:collect="always"
       xlink:href="#linearGradient4453"
       id="linearGradient6201"
       gradientUnits="userSpaceOnUse"
       x1="20.984375"
       y1="1045.6278"
       x2="22.34375"
       y2="1045.2997"
       gradientTransform="matrix(0.65508798,0,0,0.49850631,0.7847345,-499.587)" />
    <linearGradient
       id="linearGradient4453"
       inkscape:collect="always">
      <stop
         id="stop4455"
         offset="0"
         style="stop-color:#f5f5f5;stop-opacity:1;" />
      <stop
         id="stop4457"
         offset="1"
         style="stop-color:#b1f5ff;stop-opacity:1" />
    </linearGradient>
    <linearGradient
       inkscape:collect="always"
       xlink:href="#linearGradient4469"
       id="linearGradient6205"
       gradientUnits="userSpaceOnUse"
       x1="22.578125"
       y1="43.953125"
       x2="26.09375"
       y2="43.984375"
       gradientTransform="matrix(0.65508799,0,0,0.49850631,0.7847419,1.0939299)" />
    <linearGradient
       id="linearGradient4469"
       inkscape:collect="always">
      <stop
         id="stop4471"
         offset="0"
         style="stop-color:#e12d37;stop-opacity:1;" />
      <stop
         id="stop4473"
         offset="1"
         style="stop-color:#a51923;stop-opacity:1" />
    </linearGradient>
    <linearGradient
       inkscape:collect="always"
       xlink:href="#linearGradient4445"
       id="linearGradient6209"
       gradientUnits="userSpaceOnUse"
       x1="23.576941"
       y1="1046.7808"
       x2="26.264553"
       y2="1046.825"
       gradientTransform="matrix(0.65508798,0,0,0.49850631,0.7847345,-499.587)" />
    <linearGradient
       id="linearGradient4445"
       inkscape:collect="always">
      <stop
         id="stop4447"
         offset="0"
         style="stop-color:#f4fafa;stop-opacity:1" />
      <stop
         id="stop4449"
         offset="1"
         style="stop-color:#b1f5ff;stop-opacity:1" />
    </linearGradient>
    <linearGradient
       gradientTransform="matrix(0.65508799,0,0,0.49850631,0.7847419,1.0939299)"
       gradientUnits="userSpaceOnUse"
       y2="38.586639"
       x2="24.395184"
       y1="37.084038"
       x1="24.262602"
       id="linearGradient4501"
       xlink:href="#linearGradient4495"
       inkscape:collect="always" />
    <linearGradient
       id="linearGradient4495"
       inkscape:collect="always">
      <stop
         id="stop4497"
         offset="0"
         style="stop-color:#b93c0a;stop-opacity:1" />
      <stop
         id="stop4499"
         offset="1"
         style="stop-color:#440701;stop-opacity:1" />
    </linearGradient>
    <linearGradient
       inkscape:collect="always"
       xlink:href="#linearGradient5691-976"
       id="linearGradient6215"
       gradientUnits="userSpaceOnUse"
       x1="22.22967"
       y1="1037.9991"
       x2="23.953241"
       y2="1039.4354"
       gradientTransform="matrix(0.65508798,0,0,0.49850631,0.7847345,-499.587)" />
    <linearGradient
       id="linearGradient5691-976">
      <stop
         style="stop-color:#f4fafa;stop-opacity:0.83333325;"
         offset="0.0000000"
         id="stop2971" />
      <stop
         style="stop-color:#f4fafa;stop-opacity:0.0000000"
         offset="1"
         id="stop2973" />
    </linearGradient>
    <linearGradient
       inkscape:collect="always"
       xlink:href="#linearGradient4485"
       id="linearGradient6218"
       gradientUnits="userSpaceOnUse"
       x1="23.732271"
       y1="1038.3527"
       x2="25.986174"
       y2="1042.7279"
       gradientTransform="matrix(0.65508798,0,0,0.49850631,0.7847345,-499.587)" />
    <linearGradient
       id="linearGradient4485"
       inkscape:collect="always">
      <stop
         id="stop4487"
         offset="0"
         style="stop-color:#ffb41e;stop-opacity:1" />
      <stop
         id="stop4489"
         offset="1"
         style="stop-color:#e18214;stop-opacity:1" />
    </linearGradient>
    <radialGradient
       gradientUnits="userSpaceOnUse"
       gradientTransform="matrix(0.57354279,1.0372504,-1.0619522,0.58720185,1077.6114,408.78997)"
       r="5.1217437"
       fy="1011.508"
       fx="8.0625"
       cy="1011.508"
       cx="8.0625"
       id="radialGradient4139"
       xlink:href="#linearGradient4133"
       inkscape:collect="always" />
    <linearGradient
       id="linearGradient4133"
       inkscape:collect="always">
      <stop
         id="stop4135"
         offset="0"
         style="stop-color:#89d7ff;stop-opacity:1" />
      <stop
         id="stop4137"
         offset="1"
         style="stop-color:#2f91f5;stop-opacity:1" />
    </linearGradient>
    <linearGradient
       y2="7.1072145"
       x2="62.608765"
       y1="-13.444987"
       x1="62.745731"
       gradientTransform="matrix(0.49009663,0,0,0.60135298,-21.087794,1015.3942)"
       gradientUnits="userSpaceOnUse"
       id="linearGradient4130"
       xlink:href="#linearGradient5691"
       inkscape:collect="always" />
    <linearGradient
       id="linearGradient5691">
      <stop
         style="stop-color:#ffffff;stop-opacity:0.83333325;"
         offset="0.0000000"
         id="stop5693" />
      <stop
         style="stop-color:#ffffff;stop-opacity:0.0000000"
         offset="1"
         id="stop5695" />
    </linearGradient>
    <radialGradient
       r="5.1217437"
       fy="1034.7361"
       fx="16.788858"
       cy="1034.7361"
       cx="16.788858"
       gradientTransform="matrix(0.7130021,0.10767359,-0.15670076,1.0376544,165.70377,-40.277842)"
       gradientUnits="userSpaceOnUse"
       id="radialGradient4277"
       xlink:href="#linearGradient4267"
       inkscape:collect="always" />
    <linearGradient
       inkscape:collect="always"
       id="linearGradient4267">
      <stop
         style="stop-color:#f58ceb;stop-opacity:1"
         offset="0"
         id="stop4269-9" />
      <stop
         style="stop-color:#d150c3;stop-opacity:1"
         offset="1"
         id="stop4271" />
    </linearGradient>
    <linearGradient
       y2="7.1072145"
       x2="62.608765"
       y1="-13.444987"
       x1="62.745731"
       gradientTransform="matrix(0.49009663,0,0,0.60135298,-16.762731,1039.9138)"
       gradientUnits="userSpaceOnUse"
       id="linearGradient4279"
       xlink:href="#linearGradient5691"
       inkscape:collect="always" />
    <radialGradient
       r="5.1217437"
       fy="1036.4016"
       fx="20.682873"
       cy="1036.4016"
       cx="20.682873"
       gradientTransform="matrix(0.55364967,0.55310778,-0.52436711,0.52488085,552.6867,480.6273)"
       gradientUnits="userSpaceOnUse"
       id="radialGradient4221"
       xlink:href="#linearGradient4209"
       inkscape:collect="always" />
    <linearGradient
       id="linearGradient4209"
       inkscape:collect="always">
      <stop
         id="stop4211"
         offset="0"
         style="stop-color:#fff0aa;stop-opacity:1" />
      <stop
         id="stop4213"
         offset="1"
         style="stop-color:#ffc832;stop-opacity:1" />
    </linearGradient>
    <linearGradient
       y2="7.1072145"
       x2="62.608765"
       y1="-13.444987"
       x1="62.745731"
       gradientTransform="matrix(0.49009663,0,0,0.60135298,-8.5253489,1040.0596)"
       gradientUnits="userSpaceOnUse"
       id="linearGradient4223"
       xlink:href="#linearGradient5691"
       inkscape:collect="always" />
    <radialGradient
       r="5.1217442"
       fy="1033.335"
       fx="20.847567"
       cy="1033.335"
       cx="20.847567"
       gradientTransform="matrix(0.74379444,0.3532203,-0.33399891,0.70331994,351.06392,298.98332)"
       gradientUnits="userSpaceOnUse"
       id="radialGradient4297"
       xlink:href="#linearGradient4285-1"
       inkscape:collect="always" />
    <linearGradient
       id="linearGradient4285-1"
       inkscape:collect="always">
      <stop
         id="stop4287"
         offset="0"
         style="stop-color:#f5c88c;stop-opacity:1" />
      <stop
         id="stop4289"
         offset="1"
         style="stop-color:#cd9b55;stop-opacity:1" />
    </linearGradient>
    <linearGradient
       y2="7.1072145"
       x2="62.608765"
       y1="-13.444987"
       x1="62.745731"
       gradientTransform="matrix(0.49009663,0,0,0.60135298,-7.876886,1037.2662)"
       gradientUnits="userSpaceOnUse"
       id="linearGradient4299"
       xlink:href="#linearGradient5691"
       inkscape:collect="always" />
    <radialGradient
       r="5.1217437"
       fy="1032.0334"
       fx="9.8125"
       cy="1032.0334"
       cx="9.8125"
       gradientTransform="matrix(0.73216672,0.866415,-0.92686097,0.78324773,959.17967,214.71009)"
       gradientUnits="userSpaceOnUse"
       id="radialGradient4161"
       xlink:href="#linearGradient4149"
       inkscape:collect="always" />
    <linearGradient
       id="linearGradient4149"
       inkscape:collect="always">
      <stop
         id="stop4151"
         offset="0"
         style="stop-color:#c5f579;stop-opacity:1" />
      <stop
         id="stop4153"
         offset="1"
         style="stop-color:#75e115;stop-opacity:1" />
    </linearGradient>
    <linearGradient
       y2="7.1072145"
       x2="62.608765"
       y1="-13.444987"
       x1="62.745731"
       gradientTransform="matrix(0.49009663,0,0,0.60135298,-19.087794,1036.3317)"
       gradientUnits="userSpaceOnUse"
       id="linearGradient4163"
       xlink:href="#linearGradient5691"
       inkscape:collect="always" />
    <radialGradient
       r="5.1217437"
       fy="1037.7605"
       fx="15.672348"
       cy="1037.7605"
       cx="15.672348"
       gradientTransform="matrix(0.51904533,0.69979869,-0.59045304,0.43794345,620.80171,571.47685)"
       gradientUnits="userSpaceOnUse"
       id="radialGradient4201"
       xlink:href="#linearGradient4189-7"
       inkscape:collect="always" />
    <linearGradient
       id="linearGradient4189-7"
       inkscape:collect="always">
      <stop
         id="stop4191-25"
         offset="0"
         style="stop-color:#c398f5;stop-opacity:1" />
      <stop
         id="stop4193"
         offset="1"
         style="stop-color:#9148d7;stop-opacity:1" />
    </linearGradient>
    <linearGradient
       y2="7.1072145"
       x2="62.608765"
       y1="-13.444987"
       x1="62.745731"
       gradientTransform="matrix(0.49009663,0,0,0.60135298,-12.623066,1041.3252)"
       gradientUnits="userSpaceOnUse"
       id="linearGradient4203"
       xlink:href="#linearGradient5691"
       inkscape:collect="always" />
    <radialGradient
       r="5.1217437"
       fy="1037.371"
       fx="12.374369"
       cy="1037.371"
       cx="12.374369"
       gradientTransform="matrix(0.55224242,0.81109759,-1.0030638,0.68294295,1046.09,318.39224)"
       gradientUnits="userSpaceOnUse"
       id="radialGradient4181"
       xlink:href="#linearGradient4169"
       inkscape:collect="always" />
    <linearGradient
       id="linearGradient4169"
       inkscape:collect="always">
      <stop
         id="stop4171"
         offset="0"
         style="stop-color:#b9b9b9;stop-opacity:1" />
      <stop
         id="stop4173"
         offset="1"
         style="stop-color:#7d7d7d;stop-opacity:1" />
    </linearGradient>
    <linearGradient
       y2="7.1072145"
       x2="62.608765"
       y1="-13.444987"
       x1="62.745731"
       gradientTransform="matrix(0.49009663,0,0,0.60135298,-16.515203,1041.636)"
       gradientUnits="userSpaceOnUse"
       id="linearGradient4183"
       xlink:href="#linearGradient5691"
       inkscape:collect="always" />
  </defs>
  <sodipodi:namedview
     pagecolor="#ffffff"
     bordercolor="#666666"
     borderopacity="1"
     objecttolerance="10"
     gridtolerance="10"
     guidetolerance="10"
     inkscape:pageopacity="0"
     inkscape:pageshadow="2"
     inkscape:window-width="1920"
     inkscape:window-height="926"
     id="namedview8"
     showgrid="false"
     inkscape:zoom="4.9166667"
     inkscape:cx="-24.610169"
     inkscape:cy="24"
     inkscape:window-x="0"
     inkscape:window-y="24"
     inkscape:window-maximized="1"
     inkscape:current-layer="svg2" />
  <path
     d="M -0.6101695,0.9152542 30,0.9152542 30,30 -0.6101695,30 Z"
     id="path6"
     inkscape:connector-curvature="0"
     style="fill:none" />
  <path
     inkscape:connector-curvature="0"
     id="path6259"
     d="m 14.653481,29.862124 0.130524,0 0.498361,-0.46051 0.118666,-0.50566 -0.118666,-0.288947 -0.569558,-0.05418 -0.28478,0.216711 -0.05932,0.541778 z"
     style="fill:#cd733c;stroke:none;stroke-width:1px;stroke-linecap:butt;stroke-linejoin:miter;stroke-opacity:1" />
  <path
     sodipodi:nodetypes="cc"
     inkscape:connector-curvature="0"
     id="path6255"
     d="m 15.163709,27.053912 -0.225448,1.842046"
     style="fill:none;stroke:#000000;stroke-width:0.32790422px;stroke-linecap:butt;stroke-linejoin:miter;stroke-opacity:1" />
  <path
     inkscape:connector-curvature="0"
     id="path4503"
     d="m 11.149226,10.790159 2.142378,7.490556"
     style="fill:none;stroke:#414141;stroke-width:0.17143773;stroke-linecap:butt;stroke-linejoin:miter;stroke-miterlimit:4;stroke-dasharray:none;stroke-opacity:1" />
  <path
     sodipodi:nodetypes="cc"
     inkscape:connector-curvature="0"
     id="path4505"
     d="m 6.6878518,8.613778 6.6616522,9.534755"
     style="fill:none;stroke:#414141;stroke-width:0.17143773;stroke-linecap:butt;stroke-linejoin:miter;stroke-miterlimit:4;stroke-dasharray:none;stroke-opacity:1" />
  <path
     inkscape:connector-curvature="0"
     id="path4507"
     d="m 15.202377,10.525786 -1.679165,7.534617"
     style="fill:none;stroke:#414141;stroke-width:0.17143773;stroke-linecap:butt;stroke-linejoin:miter;stroke-miterlimit:4;stroke-dasharray:none;stroke-opacity:1" />
  <path
     sodipodi:nodetypes="cc"
     inkscape:connector-curvature="0"
     id="path4509"
     d="m 19.477198,11.803587 -5.838184,6.300896"
     style="fill:none;stroke:#414141;stroke-width:0.17143773;stroke-linecap:butt;stroke-linejoin:miter;stroke-miterlimit:4;stroke-dasharray:none;stroke-opacity:1" />
  <path
     inkscape:connector-curvature="0"
     id="path4511"
     d="M 17.923772,7.4414361 13.407404,18.192612"
     style="fill:none;stroke:#414141;stroke-width:0.17143773;stroke-linecap:butt;stroke-linejoin:miter;stroke-miterlimit:4;stroke-dasharray:none;stroke-opacity:1" />
  <path
     inkscape:connector-curvature="0"
     id="path4513"
     d="M 12.944188,6.2958195 13.46531,17.884171"
     style="fill:none;stroke:#414141;stroke-width:0.17143773;stroke-linecap:butt;stroke-linejoin:miter;stroke-miterlimit:4;stroke-dasharray:none;stroke-opacity:1" />
  <path
     sodipodi:nodetypes="ccccc"
     inkscape:connector-curvature="0"
     id="path5074-29"
     d="m 18.716496,20.796898 c -0.01527,0.419626 0.259962,0.617483 0.810479,0.788823 0.441788,0.122199 1.375638,-0.04035 1.50561,-0.370227 0.13972,-0.322828 -0.45082,-0.748119 -0.963868,-0.832072 -0.497148,-0.06001 -1.045579,-0.103117 -1.352221,0.413476 z"
     style="fill:#ec9632;fill-opacity:1;stroke:#b95514;stroke-width:0.17143773;stroke-miterlimit:4;stroke-dasharray:none;stroke-opacity:1" />
  <path
     sodipodi:nodetypes="ccccc"
     inkscape:connector-curvature="0"
     id="path5074-2-0"
     d="m 18.967638,20.833082 c -0.01186,0.344025 0.36713,0.179064 0.797792,0.319484 0.3456,0.100197 0.912364,0.29428 1.014033,0.02346 0.109304,-0.264677 -0.352666,-0.613278 -0.754007,-0.682129 -0.388914,-0.04935 -0.817935,-0.08453 -1.057818,0.338933 z"
     style="fill:#e18214;stroke:#d76414;stroke-width:0.09152509;stroke-miterlimit:4;stroke-dasharray:none" />
  <path
     sodipodi:nodetypes="ccccc"
     inkscape:connector-curvature="0"
     id="path5074"
     d="m 14.798091,20.90917 c 0.01528,0.419626 -0.259962,0.617484 -0.81048,0.788823 -0.441789,0.122169 -1.375639,-0.04039 -1.50561,-0.370255 -0.139716,-0.322829 0.450821,-0.74809 0.963868,-0.832044 0.497147,-0.06001 1.045578,-0.103142 1.352222,0.413476 z"
     style="fill:#ec9632;fill-opacity:1;stroke:#b95514;stroke-width:0.17143773;stroke-miterlimit:4;stroke-dasharray:none;stroke-opacity:1" />
  <g
     transform="matrix(0.65508799,0,0,0.49850631,13.845557,-513.38932)"
     id="g4177">
    <path
       style="fill:url(#radialGradient4181);fill-opacity:1;fill-rule:nonzero;stroke:#414141;stroke-width:0.61002815;stroke-miterlimit:4;stroke-dasharray:none"
       d="m 18.764322,1039.6037 c 0,3.2642 -2.156681,5.9104 -4.816669,5.9104 -2.660231,0 -4.8167907,-2.6462 -4.8167907,-5.9104 0,-3.264 2.1565597,-5.9099 4.8167907,-5.9099 2.659988,0 4.816669,2.6459 4.816669,5.9099 l 0,0 z"
       id="path6495-6"
       inkscape:connector-curvature="0" />
    <path
       id="path8655-4"
       d="m 18.255149,1039.5245 c 0,2.9047 -1.919111,5.2595 -4.286086,5.2595 -2.367191,0 -4.2861949,-2.3548 -4.2861949,-5.2595 0,-2.9044 1.9190039,-5.259 4.2861949,-5.259 2.366975,0 4.286086,2.3546 4.286086,5.259 l 0,0 z"
       style="opacity:0.6;fill:none;stroke:url(#linearGradient4183);stroke-width:0.61002815;stroke-miterlimit:4;stroke-dasharray:none;stroke-opacity:1"
       inkscape:connector-curvature="0" />
  </g>
  <g
     transform="matrix(0.65508799,0,0,0.49850631,6.4348706,-512.51694)"
     id="g4197">
    <path
       style="fill:url(#radialGradient4201);fill-opacity:1;fill-rule:nonzero;stroke:#41167d;stroke-width:0.61002815;stroke-miterlimit:4;stroke-dasharray:none"
       d="m 22.656458,1039.2929 c 0,3.2642 -2.156681,5.9104 -4.816668,5.9104 -2.660231,0 -4.816791,-2.6462 -4.816791,-5.9104 0,-3.264 2.15656,-5.9099 4.816791,-5.9099 2.659987,0 4.816668,2.6459 4.816668,5.9099 l 0,0 z"
       id="path6495-3"
       inkscape:connector-curvature="0" />
    <path
       id="path8655-02"
       d="m 22.147285,1039.2137 c 0,2.9047 -1.919111,5.2595 -4.286086,5.2595 -2.367191,0 -4.286195,-2.3548 -4.286195,-5.2595 0,-2.9044 1.919004,-5.259 4.286195,-5.259 2.366975,0 4.286086,2.3546 4.286086,5.259 l 0,0 z"
       style="opacity:0.6;fill:none;stroke:url(#linearGradient4203);stroke-width:0.61002815;stroke-miterlimit:4;stroke-dasharray:none;stroke-opacity:1"
       inkscape:connector-curvature="0" />
  </g>
  <g
     transform="matrix(0.65508799,0,0,0.49850631,5.534132,-511.08376)"
     id="g4157">
    <path
       style="fill:url(#radialGradient4161);fill-opacity:1;fill-rule:nonzero;stroke:#2f9b04;stroke-width:0.61002815;stroke-miterlimit:4;stroke-dasharray:none"
       d="m 16.19173,1034.2994 c 0,3.2642 -2.156681,5.9104 -4.816668,5.9104 -2.660231,0 -4.816791,-2.6462 -4.816791,-5.9104 0,-3.264 2.15656,-5.9099 4.816791,-5.9099 2.659987,0 4.816668,2.6459 4.816668,5.9099 l 0,0 z"
       id="path6495-2"
       inkscape:connector-curvature="0" />
    <path
       id="path8655-9"
       d="m 15.682557,1034.2202 c 0,2.9047 -1.919111,5.2595 -4.286086,5.2595 -2.367191,0 -4.286195,-2.3548 -4.286195,-5.2595 0,-2.9044 1.919004,-5.259 4.286195,-5.259 2.366975,0 4.286086,2.3546 4.286086,5.259 l 0,0 z"
       style="opacity:0.6;fill:none;stroke:url(#linearGradient4163);stroke-width:0.61002815;stroke-miterlimit:4;stroke-dasharray:none;stroke-opacity:1"
       inkscape:connector-curvature="0" />
  </g>
  <g
     transform="matrix(0.65508799,0,0,0.49850631,4.8790402,-507.18913)"
     id="g4293">
    <path
       style="fill:url(#radialGradient4297);fill-opacity:1;fill-rule:nonzero;stroke:#a06428;stroke-width:0.61002815;stroke-miterlimit:4;stroke-dasharray:none"
       d="m 27.402639,1035.2339 c 0,3.2642 -2.156681,5.9104 -4.816669,5.9104 -2.66023,0 -4.816791,-2.6462 -4.816791,-5.9104 0,-3.264 2.156561,-5.9099 4.816791,-5.9099 2.659988,0 4.816669,2.6459 4.816669,5.9099 l 0,0 z"
       id="path6495-4"
       inkscape:connector-curvature="0" />
    <path
       id="path8655-64"
       d="m 26.893466,1035.1547 c 0,2.9047 -1.919111,5.2595 -4.286086,5.2595 -2.367191,0 -4.286195,-2.3548 -4.286195,-5.2595 0,-2.9044 1.919004,-5.259 4.286195,-5.259 2.366975,0 4.286086,2.3546 4.286086,5.259 l 0,0 z"
       style="opacity:0.6;fill:none;stroke:url(#linearGradient4299);stroke-width:0.61002815;stroke-miterlimit:4;stroke-dasharray:none;stroke-opacity:1"
       inkscape:connector-curvature="0" />
  </g>
  <g
     transform="matrix(0.65508799,0,0,0.49850631,1.2479613,-509.80939)"
     id="g4217">
    <path
       style="fill:url(#radialGradient4221);fill-opacity:1;fill-rule:nonzero;stroke:#e18214;stroke-width:0.61002815;stroke-miterlimit:4;stroke-dasharray:none"
       d="m 26.754175,1038.0273 c 0,3.2642 -2.156681,5.9104 -4.816668,5.9104 -2.660231,0 -4.816791,-2.6462 -4.816791,-5.9104 0,-3.264 2.15656,-5.9099 4.816791,-5.9099 2.659987,0 4.816668,2.6459 4.816668,5.9099 l 0,0 z"
       id="path6495-8"
       inkscape:connector-curvature="0" />
    <path
       id="path8655-0"
       d="m 26.245002,1037.9481 c 0,2.9047 -1.919111,5.2595 -4.286085,5.2595 -2.367191,0 -4.286195,-2.3548 -4.286195,-5.2595 0,-2.9044 1.919004,-5.259 4.286195,-5.259 2.366974,0 4.286085,2.3546 4.286085,5.259 l 0,0 z"
       style="opacity:0.6;fill:none;stroke:url(#linearGradient4223);stroke-width:0.61002815;stroke-miterlimit:4;stroke-dasharray:none;stroke-opacity:1"
       inkscape:connector-curvature="0" />
  </g>
  <g
     transform="matrix(0.65508799,0,0,0.49850631,2.0539724,-509.58821)"
     id="g4273">
    <path
       style="fill:url(#radialGradient4277);fill-opacity:1;fill-rule:nonzero;stroke:#a9329b;stroke-width:0.61002815;stroke-miterlimit:4;stroke-dasharray:none"
       d="m 18.516793,1037.8815 c 0,3.2642 -2.156681,5.9104 -4.816668,5.9104 -2.660231,0 -4.8167909,-2.6462 -4.8167909,-5.9104 0,-3.264 2.1565599,-5.9099 4.8167909,-5.9099 2.659987,0 4.816668,2.6459 4.816668,5.9099 l 0,0 z"
       id="path6495-17"
       inkscape:connector-curvature="0" />
    <path
       id="path8655-8"
       d="m 18.00762,1037.8023 c 0,2.9047 -1.919111,5.2595 -4.286086,5.2595 -2.367191,0 -4.2861939,-2.3548 -4.2861939,-5.2595 0,-2.9044 1.9190029,-5.259 4.2861939,-5.259 2.366975,0 4.286086,2.3546 4.286086,5.259 l 0,0 z"
       style="opacity:0.6;fill:none;stroke:url(#linearGradient4279);stroke-width:0.61002815;stroke-miterlimit:4;stroke-dasharray:none;stroke-opacity:1"
       inkscape:connector-curvature="0" />
  </g>
  <g
     transform="matrix(0.65508799,0,0,0.49850631,0.7847396,-499.58696)"
     id="g4141">
    <path
       style="fill:url(#radialGradient4139);fill-opacity:1;fill-rule:nonzero;stroke:#11419b;stroke-width:0.61002815;stroke-miterlimit:4;stroke-dasharray:none"
       d="m 14.19173,1013.3619 c 0,3.2642 -2.156681,5.9104 -4.816668,5.9104 -2.660231,0 -4.816791,-2.6462 -4.816791,-5.9104 0,-3.264 2.15656,-5.9099 4.816791,-5.9099 2.659987,0 4.816668,2.6459 4.816668,5.9099 l 0,0 z"
       id="path6495-93"
       inkscape:connector-curvature="0" />
    <path
       id="path8655-08"
       d="m 13.682557,1013.2827 c 0,2.9047 -1.919111,5.2595 -4.286086,5.2595 -2.367191,0 -4.286195,-2.3548 -4.286195,-5.2595 0,-2.9044 1.919004,-5.259 4.286195,-5.259 2.366975,0 4.286086,2.3546 4.286086,5.259 l 0,0 z"
       style="opacity:0.6;fill:none;stroke:url(#linearGradient4130);stroke-width:0.61002815;stroke-miterlimit:4;stroke-dasharray:none;stroke-opacity:1"
       inkscape:connector-curvature="0" />
  </g>
  <path
     sodipodi:nodetypes="ssscs"
     inkscape:connector-curvature="0"
     id="path4301"
     d="m 19.173038,19.617624 c 0,1.374928 -0.901777,1.998275 -2.407308,2.011919 -1.5668,0.01459 -2.448247,-0.636991 -2.448247,-2.011919 0,-1.374925 1.046979,-2.096929 2.448247,-2.96716 1.363225,0.876868 2.407308,1.592235 2.407308,2.96716 z"
     style="fill:url(#linearGradient6218);fill-opacity:1;stroke:#b95514;stroke-width:0.17143773;stroke-miterlimit:4;stroke-dasharray:none;stroke-opacity:1" />
  <path
     sodipodi:nodetypes="ssscs"
     inkscape:connector-curvature="0"
     id="path4301-7"
     d="m 19.023013,19.643197 c 0,1.296208 -0.84113,1.8838 -2.245426,1.896729 -1.461438,0.01344 -2.283613,-0.600521 -2.283613,-1.896729 0,-1.296122 0.976572,-1.976734 2.283613,-2.797107 1.271559,0.82661 2.245426,1.500985 2.245426,2.797107 z"
     style="fill:none;stroke:url(#linearGradient6215);stroke-width:0.1607603;stroke-miterlimit:4;stroke-dasharray:none;stroke-opacity:1" />
  <path
     sodipodi:nodetypes="ccccc"
     inkscape:connector-curvature="0"
     id="path5072"
     d="m 16.799446,16.475291 c 0.205769,-0.119392 0.46469,-0.34208 0.470847,-0.595858 -0.01135,-0.198971 -0.150866,-0.383756 -0.470847,-0.397257 -0.266476,0.008 -0.48404,0.16479 -0.48108,0.420628 -0.01371,0.216163 0.223967,0.388875 0.48108,0.572487 z"
     style="fill:#732814;stroke:none" />
  <path
     sodipodi:nodetypes="ccccc"
     inkscape:connector-curvature="0"
     id="path5074-2"
     d="m 14.546947,20.945355 c 0.01199,0.344025 -0.367129,0.179063 -0.797792,0.319482 -0.3456,0.100196 -0.912364,0.294281 -1.014032,0.02346 -0.109303,-0.264647 0.352665,-0.613249 0.754013,-0.682099 0.388907,-0.04935 0.817933,-0.08455 1.057811,0.338933 z"
     style="fill:#e18214;stroke:#d76414;stroke-width:0.09152509;stroke-miterlimit:4;stroke-dasharray:none" />
  <ellipse
     id="path4369"
     style="fill:url(#linearGradient4501);fill-opacity:1;stroke:none"
     cx="16.711571"
     cy="19.91254"
     rx="0.61414498"
     ry="0.7166028" />
  <path
     sodipodi:nodetypes="ccc"
     inkscape:connector-curvature="0"
     id="path6257"
     d="m 18.011512,27.270622 0.04745,0.577897 -0.949264,1.218999"
     style="fill:none;stroke:#000000;stroke-width:0.32790422px;stroke-linecap:butt;stroke-linejoin:miter;stroke-opacity:1" />
  <path
     sodipodi:nodetypes="cccccccc"
     inkscape:connector-curvature="0"
     id="path6253"
     d="m 14.380567,24.71524 -0.26105,2.293524 c 0.847391,0.164778 1.43378,0.253729 2.07652,0.108352 l 0.308516,-1.18288 c 0.228345,0.412354 0.235981,0.824707 0.320375,1.23706 0.523707,0.199118 1.204394,0.266344 1.934138,0.126415 l -0.201723,-2.537326 z"
     style="fill:#2f91f5;stroke:#1b5fcd;stroke-width:0.16395211;stroke-miterlimit:4;stroke-dasharray:none" />
  <path
     sodipodi:nodetypes="cccc"
     inkscape:connector-curvature="0"
     id="path4371"
     d="m 14.2198,24.704971 4.522481,0.03293 c 0.114367,-0.894494 -0.191361,-3.356359 -1.952329,-3.348721 -1.99489,-0.04886 -2.693716,2.467442 -2.570152,3.315648 z"
     style="fill:url(#linearGradient6209);fill-opacity:1;stroke:#d7d7d7;stroke-width:0.17143773;stroke-miterlimit:4;stroke-dasharray:none;stroke-opacity:1" />
  <path
     inkscape:connector-curvature="0"
     id="path4393"
     d="m 14.187632,21.29141 -0.810631,-2.24716 -0.579025,-0.30844 -0.202653,-0.660905 0.781678,-0.286443 0.781681,0.02203 0.115796,0.881244 -0.405315,0.242335 0.810632,2.51158 z"
     style="fill:#000000;stroke:none" />
  <path
     sodipodi:nodetypes="ccccc"
     inkscape:connector-curvature="0"
     id="path4399"
     d="m 14.95629,22.609844 3.278708,0.01091 0.217136,0.721517 -3.843259,-0.02746 z"
     style="fill:url(#linearGradient6205);fill-opacity:1;stroke:none" />
  <path
     sodipodi:nodetypes="cccc"
     inkscape:connector-curvature="0"
     id="path4373"
     d="m 13.392859,21.383488 2.000439,-0.312675 c 0.154167,0.466509 0.270905,1.274239 -0.446526,1.46795 -1.087082,0.119793 -1.364316,-0.731758 -1.553913,-1.155275 z"
     style="fill:url(#linearGradient6201);fill-opacity:1;stroke:#d7d7d7;stroke-width:0.17143773;stroke-miterlimit:4;stroke-dasharray:none;stroke-opacity:1" />
  <path
     sodipodi:nodetypes="ccccccc"
     inkscape:connector-curvature="0"
     id="path4397"
     d="m 19.089769,22.58902 0.900748,0.716597 1.412534,0.327119 0.09388,-0.207924 -1.301701,-0.306125 -0.880271,-0.716597 z"
     style="fill:#000000;stroke:none" />
  <path
     sodipodi:nodetypes="cccc"
     inkscape:connector-curvature="0"
     id="path4373-8"
     d="m 20.112344,22.061898 -1.473731,0.995862 c -0.424663,-0.333241 -1.034446,-0.965541 -0.557637,-1.390887 0.832612,-0.499291 1.604314,0.110582 2.031368,0.395025 z"
     style="fill:url(#linearGradient6197);fill-opacity:1;stroke:#d7d7d7;stroke-width:0.17149392;stroke-miterlimit:4;stroke-dasharray:none;stroke-opacity:1" />
  <path
     sodipodi:nodetypes="ccccc"
     inkscape:connector-curvature="0"
     id="path4399-0"
     d="m 14.453265,23.901331 4.0821,-2.9e-5 0.01449,0.622432 -4.15448,-0.03291 z"
     style="fill:url(#linearGradient6194);fill-opacity:1;stroke:none" />
  <path
     sodipodi:nodetypes="ccccccccccc"
     inkscape:connector-curvature="0"
     id="path4493"
     d="m 21.393547,23.620036 -0.07589,0.70118 0.401163,0.0055 0.03375,-0.593083 0.629649,0.276033 0.12531,-0.375005 -0.598423,-0.118169 0.566994,-0.329836 -0.257652,-0.220769 -0.736977,0.451778 z"
     style="fill:#000000;fill-opacity:1;stroke:none" />
  <path
     sodipodi:nodetypes="cccccccc"
     inkscape:connector-curvature="0"
     id="path6263"
     d="m 16.360398,29.156952 0.218151,-0.172393 0.310441,-0.05108 0.486644,0.249013 0.318842,0.338399 0.100682,0.261781 -0.427911,-0.09577 z"
     style="fill:#cd733c;stroke:none" />
</svg>
