<?xml version="1.0" encoding="UTF-8" standalone="no"?>
<!-- Created with Inkscape (http://www.inkscape.org/) -->

<svg
   xmlns:dc="http://purl.org/dc/elements/1.1/"
   xmlns:cc="http://creativecommons.org/ns#"
   xmlns:rdf="http://www.w3.org/1999/02/22-rdf-syntax-ns#"
   xmlns:svg="http://www.w3.org/2000/svg"
   xmlns="http://www.w3.org/2000/svg"
   xmlns:sodipodi="http://sodipodi.sourceforge.net/DTD/sodipodi-0.dtd"
   xmlns:inkscape="http://www.inkscape.org/namespaces/inkscape"
   width="256"
   height="256"
   viewBox="0 0 256 256"
   id="svg2"
   version="1.1"
   inkscape:version="0.92.3 (2405546, 2018-03-11)"
   sodipodi:docname="lliurex-up.svg">
  <defs
     id="defs4">
    <linearGradient
       id="rect3438-6-0-6-7-2_60_-61"
       gradientUnits="userSpaceOnUse"
       x1="-461.39209"
       y1="370.95309"
       x2="-461.39209"
       y2="666.9834"
       gradientTransform="matrix(0.9954,0,0,-0.9999,609.2166,666.5718)">
      <stop
         offset="0"
         style="stop-color:#000000"
         id="stop29032" />
      <stop
         offset="1"
         style="stop-color:#000000;stop-opacity:0.5882"
         id="stop29034" />
    </linearGradient>
    <linearGradient
       id="rect3438-6-0-1-1_60_-60"
       gradientUnits="userSpaceOnUse"
       x1="-456.38821"
       y1="371.95309"
       x2="-456.38821"
       y2="668.63483"
       gradientTransform="matrix(0.9867,0,0,-0.9918,600.2651,662.6824)">
      <stop
         offset="0"
         style="stop-color:#000000"
         id="stop29038" />
      <stop
         offset="1"
         style="stop-color:#000000;stop-opacity:0.5882"
         id="stop29040" />
    </linearGradient>
  </defs>
  <sodipodi:namedview
     id="base"
     pagecolor="#ffffff"
     bordercolor="#666666"
     borderopacity="1.0"
     inkscape:pageopacity="0.0"
     inkscape:pageshadow="2"
     inkscape:zoom="0.9899495"
     inkscape:cx="53.78544"
     inkscape:cy="70.282859"
     inkscape:document-units="px"
     inkscape:current-layer="g962"
     showgrid="false"
     units="px"
     showguides="true"
     inkscape:guide-bbox="true"
     inkscape:snap-intersection-paths="false"
     inkscape:snap-midpoints="true"
     inkscape:window-width="1920"
     inkscape:window-height="837"
     inkscape:window-x="0"
     inkscape:window-y="30"
     inkscape:window-maximized="1">
    <sodipodi:guide
       position="128.92857,237.85714"
       orientation="0,1"
       id="guide4147"
       inkscape:locked="false" />
    <sodipodi:guide
       position="18.214286,162.14286"
       orientation="1,0"
       id="guide4149"
       inkscape:locked="false" />
    <sodipodi:guide
       position="237.85714,66.785714"
       orientation="1,0"
       id="guide4151"
       inkscape:locked="false" />
    <sodipodi:guide
       position="198.21429,17.5"
       orientation="0,1"
       id="guide4153"
       inkscape:locked="false" />
  </sodipodi:namedview>
  <metadata
     id="metadata7">
    <rdf:RDF>
      <cc:Work
         rdf:about="">
        <dc:format>image/svg+xml</dc:format>
        <dc:type
           rdf:resource="http://purl.org/dc/dcmitype/StillImage" />
        <dc:title />
      </cc:Work>
    </rdf:RDF>
  </metadata>
  <g
     inkscape:label="Capa 1"
     inkscape:groupmode="layer"
     id="layer1"
     transform="translate(0,-796.36216)">
    <g
       id="g29119"
       transform="matrix(0.74931131,0,0,0.74931131,16.298157,815.16006)">
      <g
         id="g962"
         transform="matrix(1.523394,0,0,1.523394,-80.067711,-67.2529)">
        <g
           enable-background="new    "
           id="XMLID_112_"
           style="opacity:0.2">
          <linearGradient
             y2="96.773903"
             x2="198.43359"
             y1="229.5"
             x1="198.43359"
             gradientUnits="userSpaceOnUse"
             id="XMLID_144_-34">
            <stop
               id="stop29065"
               style="stop-color:#000000"
               offset="0" />
            <stop
               id="stop29067"
               style="stop-color:#000000;stop-opacity:0.5882"
               offset="1" />
          </linearGradient>
          <path
             style="fill:url(#XMLID_144_-34)"
             d="m 208.813,97.885 c -7.824,-2.297 -15.962,-0.931 -22.969,3.16 -2.821,11.388 -10.061,23.695 -18.774,31.253 -1.407,17.479 5.968,37.103 15.445,45.924 0.053,0.016 -0.516,0.027 -0.516,0.042 0,16.085 0,32.735 0,49.735 0,2 4,2 4,0 0,-17 0,-33.258 0,-49.147 16,1.019 37.018,-19.711 42.235,-37.485 5.623,-19.146 -2.839,-38.614 -19.421,-43.482 z"
             id="XMLID_859_"
             inkscape:connector-curvature="0" />
          <linearGradient
             y2="49.428699"
             x2="151.83591"
             y1="210.5"
             x1="151.83591"
             gradientUnits="userSpaceOnUse"
             id="XMLID_157_-75">
            <stop
               id="stop29071"
               style="stop-color:#000000"
               offset="0" />
            <stop
               id="stop29073"
               style="stop-color:#000000;stop-opacity:0.5882"
               offset="1" />
          </linearGradient>
          <path
             style="fill:url(#XMLID_157_-75)"
             d="m 152.504,49.429 c -17.28,0 -31.986,16.175 -31.986,36.129 0,19.383 14.482,40.175 27.482,47.553 0,24.609 0,51.889 0,75.889 0,2 3,2 3,0 0,-24 0,-50.981 0,-75.441 16,-2.362 32.154,-28.948 32.154,-48.001 0,-19.954 -13.367,-36.129 -30.65,-36.129 z m -7.279,17.273 c -13.061,11.274 -16.279,29.578 -8.313,44.786 1.041,1.988 -1.738,3.573 -2.985,1.744 -12.708,-18.635 -11.273,-45.875 9.991,-57.506 0.099,-0.072 0.211,-0.137 0.338,-0.193 0.126,-0.067 0.251,-0.117 0.373,-0.152 2.171,-0.824 5.644,-0.994 6.765,1.467 1.632,3.589 -3.997,7.978 -6.169,9.854 z"
             id="XMLID_862_"
             inkscape:connector-curvature="0" />
          <linearGradient
             y2="97.130402"
             x2="103.207"
             y1="230.5"
             x1="103.207"
             gradientUnits="userSpaceOnUse"
             id="XMLID_231_-56">
            <stop
               id="stop29077"
               style="stop-color:#000000"
               offset="0" />
            <stop
               id="stop29079"
               style="stop-color:#000000;stop-opacity:0.5882"
               offset="1" />
          </linearGradient>
          <path
             style="fill:url(#XMLID_231_-56)"
             d="M 116.578,102.018 C 108.48,97.011 98.875,95.583 90.097,98.99 73.986,105.244 66.376,125.394 73.596,143.994 80.205,161.02 99,174.411 114,177.645 c 0,16.524 0,33.355 0,51.355 0,2 4,2 4,0 0,-16 0,-34.442 0,-50.773 0,0.018 0.475,0.042 0.632,0.057 13.786,-5.351 19.263,-29.609 16.012,-48.155 -7.924,-7.257 -14.966,-17.398 -18.066,-28.111 z"
             id="XMLID_863_"
             inkscape:connector-curvature="0" />
        </g>
        <g
           enable-background="new    "
           id="XMLID_1231_"
           style="opacity:0.2">
          <linearGradient
             y2="99.078102"
             x2="198.43359"
             y1="231.5"
             x1="198.43359"
             gradientUnits="userSpaceOnUse"
             id="XMLID_248_-19">
            <stop
               id="stop29084"
               style="stop-color:#000000"
               offset="0" />
            <stop
               id="stop29086"
               style="stop-color:#000000;stop-opacity:0.5882"
               offset="1" />
          </linearGradient>
          <path
             style="fill:url(#XMLID_248_-19)"
             d="m 208.813,100.189 c -7.824,-2.297 -15.962,-0.931 -22.969,3.16 -2.821,11.388 -10.061,23.695 -18.774,31.253 -1.407,17.479 5.968,37.103 15.445,45.924 0.053,0.016 -0.516,0.027 -0.516,0.042 0,16.085 0,33.431 0,49.431 0,2 4,2 4,0 0,-16 0,-32.954 0,-48.843 16,1.019 37.018,-19.711 42.235,-37.486 5.623,-19.145 -2.839,-38.612 -19.421,-43.481 z"
             id="XMLID_1236_"
             inkscape:connector-curvature="0" />
          <linearGradient
             y2="51.732399"
             x2="151.83591"
             y1="213.25"
             x1="151.83591"
             gradientUnits="userSpaceOnUse"
             id="XMLID_279_-09">
            <stop
               id="stop29090"
               style="stop-color:#000000"
               offset="0" />
            <stop
               id="stop29092"
               style="stop-color:#000000;stop-opacity:0.5882"
               offset="1" />
          </linearGradient>
          <path
             style="fill:url(#XMLID_279_-09)"
             d="m 152.504,51.732 c -17.28,0 -31.986,16.176 -31.986,36.13 0,19.383 14.482,40.175 27.482,47.553 0,24.608 0,51.585 0,75.585 0,3 3,3 3,0 0,-24 0,-50.678 0,-75.137 16,-2.362 32.154,-28.948 32.154,-48.001 0,-19.954 -13.367,-36.13 -30.65,-36.13 z m -7.279,17.274 c -13.061,11.274 -16.279,29.578 -8.313,44.786 1.041,1.988 -1.738,3.573 -2.985,1.745 -12.708,-18.634 -11.273,-45.875 9.991,-57.506 0.099,-0.071 0.211,-0.136 0.338,-0.193 0.126,-0.067 0.251,-0.116 0.373,-0.152 2.171,-0.823 5.644,-0.993 6.765,1.467 1.632,3.588 -3.997,7.977 -6.169,9.853 z"
             id="XMLID_1233_"
             inkscape:connector-curvature="0" />
          <linearGradient
             y2="99.434601"
             x2="103.207"
             y1="232.5"
             x1="103.207"
             gradientUnits="userSpaceOnUse"
             id="XMLID_280_-39">
            <stop
               id="stop29096"
               style="stop-color:#000000"
               offset="0" />
            <stop
               id="stop29098"
               style="stop-color:#000000;stop-opacity:0.5882"
               offset="1" />
          </linearGradient>
          <path
             style="fill:url(#XMLID_280_-39)"
             d="m 116.578,104.322 c -8.098,-5.007 -17.703,-6.435 -26.481,-3.028 -16.111,6.254 -23.721,26.404 -16.501,45.005 6.609,17.025 25.404,30.416 40.404,33.65 0,16.524 0,34.051 0,51.051 0,2 4,2 4,0 0,-16 0,-34.138 0,-50.469 0,0.018 0.475,0.042 0.632,0.057 13.786,-5.351 19.263,-29.609 16.012,-48.155 -7.924,-7.257 -14.966,-17.398 -18.066,-28.111 z"
             id="XMLID_1232_"
             inkscape:connector-curvature="0" />
        </g>
        <path
           d="m 208.813,95.581 c -7.824,-2.297 -15.962,-0.931 -22.969,3.16 -2.821,11.388 -10.062,23.695 -18.774,31.253 -1.407,17.479 5.968,37.103 15.445,45.924 0.053,0.016 -0.516,0.027 -0.516,0.043 0,16.085 0,33.039 0,49.039 0,3 4,3 4,0 0,-16 0,-32.562 0,-48.452 16,1.019 37.018,-19.711 42.235,-37.486 5.623,-19.145 -2.839,-38.613 -19.421,-43.481 z"
           id="XMLID_1643_"
           inkscape:connector-curvature="0"
           style="fill:#ff0000;fill-opacity:1" />
        <path
           d="m 152.504,47.125 c -17.28,0 -31.986,16.175 -31.986,36.129 0,19.384 14.482,40.175 27.482,47.553 0,24.609 0,52.193 0,76.193 0,2 3,2 3,0 0,-24 0,-51.286 0,-75.745 16,-2.362 32.154,-28.948 32.154,-48.001 0,-19.954 -13.367,-36.129 -30.65,-36.129 z m -7.279,17.273 c -13.061,11.273 -16.279,29.577 -8.313,44.786 1.041,1.988 -1.738,3.573 -2.985,1.744 -12.708,-18.634 -11.273,-45.875 9.991,-57.506 0.099,-0.072 0.211,-0.137 0.338,-0.193 0.126,-0.067 0.251,-0.117 0.373,-0.152 2.171,-0.824 5.644,-0.994 6.765,1.467 1.632,3.588 -3.997,7.978 -6.169,9.854 z"
           id="XMLID_855_"
           inkscape:connector-curvature="0"
           style="fill:#0087ff;fill-opacity:1" />
        <path
           d="m 151.393,54.543 c -1.121,-2.46 -4.594,-2.291 -6.765,-1.467 -0.122,0.036 -0.247,0.085 -0.373,0.152 -0.127,0.057 -0.239,0.122 -0.338,0.193 -21.265,11.631 -22.699,38.872 -9.991,57.506 1.247,1.829 4.026,0.244 2.985,-1.744 -7.966,-15.208 -4.747,-33.512 8.313,-44.786 2.173,-1.875 7.802,-6.265 6.169,-9.854 z"
           id="XMLID_728_"
           inkscape:connector-curvature="0"
           style="opacity:0.5;fill:#ffffff" />
        <path
           d="M 134.564,127.825 C 126.64,120.568 119.677,110.427 116.578,99.714 108.48,94.707 98.875,93.279 90.097,96.686 73.986,102.94 66.376,123.09 73.596,141.69 80.205,158.716 99,172.107 114,175.341 c 0,16.524 0,33.659 0,50.659 0,3 4,3 4,0 0,-16 0,-33.746 0,-50.077 0,0.018 0.475,0.042 0.632,0.057 13.786,-5.351 19.183,-29.609 15.932,-48.155 z"
           id="XMLID_777_"
           inkscape:connector-curvature="0"
           style="fill:#ff6600;fill-opacity:1" />
        <g
           id="XMLID_272_"
           style="opacity:0.5">
          <path
             d="m 192.729,101.989 c -2.127,11.045 -7.781,21.383 -15.936,29.132 -1.06,1.007 -2.186,2.006 -2.821,3.323 -0.601,1.243 -0.708,2.661 -0.76,4.042 -0.285,7.536 1.061,13.371 3.419,20.534 0.456,1.386 3.943,7.63 5.398,7.524 -3.808,-5.803 -5.565,-12.921 -4.897,-19.829 0.669,-6.908 3.759,-13.558 8.608,-18.522 2.649,-2.712 5.8,-4.934 8.196,-7.872 2.908,-3.565 4.579,-8.123 4.662,-12.723 0.031,-1.728 -0.189,-3.555 -1.222,-4.942 -1.033,-1.386 -3.084,-2.128 -4.563,-1.234"
             id="XMLID_3816_"
             inkscape:connector-curvature="0"
             style="fill:#ffffff" />
        </g>
        <path
           d="m 93.944,102.688 c -1.819,-1.999 -5.073,-0.773 -6.888,0.677 -0.106,0.071 -0.21,0.157 -0.309,0.259 -0.104,0.093 -0.191,0.189 -0.263,0.288 -16.678,17.588 -9.696,43.957 8.11,57.801 1.747,1.358 3.906,-1.001 2.307,-2.575 -12.242,-12.036 -14.787,-30.446 -5.81,-45.179 1.496,-2.452 5.509,-8.355 2.853,-11.271 z"
           id="XMLID_440_"
           inkscape:connector-curvature="0"
           style="opacity:0.62999998;fill:#ffffff" />
      </g>
      <g
         display="none"
         id="Capa_2-68"
         style="display:none" />
      <g
         display="none"
         id="Capa_3-77"
         style="display:none">
        <g
           display="inline"
           id="XMLID_528_-4"
           style="display:inline">
          <g
             id="XMLID_2864_-7">
            <path
               d="m -295.115,-19.288 c -15.214,6.737 -24.612,20.724 -30.829,35.639 -7.169,17.198 -11.31,35.881 -14.992,54.089 -7.519,37.173 -10.816,76.312 -2.523,113.65 7.941,35.758 27.651,67.435 57.682,88.698 29.222,20.689 65.052,30.788 100.487,33.167 37.115,2.492 76.078,-2.932 109.798,-19.132 33.565,-16.126 59.096,-43.918 70.596,-79.501 C 6.393,172.391 4.377,133.61 -8.874,99.523 -22.748,63.838 -47.557,33.298 -77.052,9.249 c -30.861,-25.164 -68.276,-46.583 -108.311,-51.688 -35.328,-4.505 -73.881,6.342 -96.752,34.95 -4.933,6.171 -8.813,12.974 -11.736,20.307 -0.715,1.793 2.185,2.572 2.893,0.797 13.176,-33.054 48.615,-52.32 83.037,-54.003 40.84,-1.997 80.003,16.718 112.695,39.626 59.351,41.588 104.572,109.559 92.812,184.644 -5.651,36.081 -24.609,68.498 -55.021,89.135 -30.553,20.733 -68.273,29.354 -104.783,30.385 -34.452,0.973 -69.825,-5.114 -100.831,-20.56 -31.954,-15.919 -57.236,-42.09 -70.265,-75.515 -13.134,-33.693 -13.966,-70.921 -9.603,-106.422 2.289,-18.628 6.083,-37.059 10.783,-55.221 4.199,-16.219 9.007,-33.091 19.169,-46.709 5.087,-6.816 11.572,-12.224 19.363,-15.673 1.763,-0.78 0.239,-3.365 -1.513,-2.59 l 0,0 z"
               id="XMLID_2805_-1"
               inkscape:connector-curvature="0"
               style="fill:#d60523" />
          </g>
        </g>
      </g>
    </g>
  </g>
</svg>
