<?xml version="1.0" encoding="UTF-8" standalone="no"?>
<svg
   xmlns:dc="http://purl.org/dc/elements/1.1/"
   xmlns:cc="http://creativecommons.org/ns#"
   xmlns:rdf="http://www.w3.org/1999/02/22-rdf-syntax-ns#"
   xmlns:svg="http://www.w3.org/2000/svg"
   xmlns="http://www.w3.org/2000/svg"
   xmlns:sodipodi="http://sodipodi.sourceforge.net/DTD/sodipodi-0.dtd"
   xmlns:inkscape="http://www.inkscape.org/namespaces/inkscape"
   inkscape:export-ydpi="96"
   inkscape:export-xdpi="96"
   inkscape:export-filename="/home/lliurex/Desarrollo/lliurex-up/lliurex-up/usr/share/lliurex-up/rsrc/gtk-preferences.png"
   height="16"
   width="16"
   viewBox="0 0 16 16"
   version="1.1"
   id="svg6"
   sodipodi:docname="gtk-preferences.svg"
   inkscape:version="1.0 (1.0+r73)">
  <metadata
     id="metadata10">
    <rdf:RDF>
      <cc:Work
         rdf:about="">
        <dc:format>image/svg+xml</dc:format>
        <dc:type
           rdf:resource="http://purl.org/dc/dcmitype/StillImage" />
        <dc:title></dc:title>
      </cc:Work>
    </rdf:RDF>
  </metadata>
  <sodipodi:namedview
     inkscape:document-rotation="0"
     pagecolor="#ffffff"
     bordercolor="#666666"
     borderopacity="1"
     objecttolerance="10"
     gridtolerance="10"
     guidetolerance="10"
     inkscape:pageopacity="0"
     inkscape:pageshadow="2"
     inkscape:window-width="1920"
     inkscape:window-height="901"
     id="namedview8"
     showgrid="false"
     inkscape:zoom="11.171875"
     inkscape:cx="30.925102"
     inkscape:cy="25.052491"
     inkscape:window-x="0"
     inkscape:window-y="32"
     inkscape:window-maximized="1"
     inkscape:current-layer="svg6" />
  <defs
     id="defs3051">
    <style
       type="text/css"
       id="current-color-scheme">
      .ColorScheme-Text {
        color:#232629;
      }
      .ColorScheme-Highlight {
        color:#3daee9;
      }
      </style>
  </defs>
  <path
     style="fill:currentColor;fill-opacity:1;stroke:none;stroke-width:0.666667"
     d="m 9.666667,1.3333335 a 2.3333333,2.3333333 0 0 0 -2.305987,2 H 0 V 4.0000002 H 7.36 A 2.3333333,2.3333333 0 0 0 9.666667,6.0000005 2.3333333,2.3333333 0 0 0 11.972656,4.0000002 H 16 V 3.3333335 h -4.026 a 2.3333333,2.3333333 0 0 0 -2.307333,-2 M 2.3333333,10.000001 A 2.3333333,2.3333333 0 0 0 0,12.333334 a 2.3333333,2.3333333 0 0 0 2.3333333,2.333333 2.3333333,2.3333333 0 0 0 2.307292,-2 H 16 V 12.000001 H 4.6393333 a 2.3333333,2.3333333 0 0 0 -2.306,-2 m 0,0.666666 A 1.6666667,1.6666667 0 0 1 4,12.333334 1.6666667,1.6666667 0 0 1 2.3333333,14.000001 1.6666667,1.6666667 0 0 1 0.6666667,12.333334 1.6666667,1.6666667 0 0 1 2.3333333,10.666667"
     class="ColorScheme-Text"
     id="path4" />
</svg>
