<?xml version="1.0" encoding="UTF-8" standalone="no"?>
<svg
   xmlns:dc="http://purl.org/dc/elements/1.1/"
   xmlns:cc="http://creativecommons.org/ns#"
   xmlns:rdf="http://www.w3.org/1999/02/22-rdf-syntax-ns#"
   xmlns:svg="http://www.w3.org/2000/svg"
   xmlns="http://www.w3.org/2000/svg"
   xmlns:sodipodi="http://sodipodi.sourceforge.net/DTD/sodipodi-0.dtd"
   xmlns:inkscape="http://www.inkscape.org/namespaces/inkscape"
   height="16"
   width="16"
   version="1.1"
   viewBox="0 0 16 16"
   id="svg9"
   sodipodi:docname="update-none.svg"
   inkscape:version="1.0 (1.0+r73)">
  <metadata
     id="metadata13">
    <rdf:RDF>
      <cc:Work
         rdf:about="">
        <dc:format>image/svg+xml</dc:format>
        <dc:type
           rdf:resource="http://purl.org/dc/dcmitype/StillImage" />
        <dc:title></dc:title>
      </cc:Work>
    </rdf:RDF>
  </metadata>
  <sodipodi:namedview
     inkscape:document-rotation="0"
     pagecolor="#ffffff"
     bordercolor="#666666"
     borderopacity="1"
     objecttolerance="10"
     gridtolerance="10"
     guidetolerance="10"
     inkscape:pageopacity="0"
     inkscape:pageshadow="2"
     inkscape:window-width="1920"
     inkscape:window-height="901"
     id="namedview11"
     showgrid="false"
     inkscape:zoom="14.895833"
     inkscape:cx="8.1124887"
     inkscape:cy="18.887682"
     inkscape:window-x="0"
     inkscape:window-y="32"
     inkscape:window-maximized="1"
     inkscape:current-layer="svg9" />
  <defs
     id="defs3">
    <style
       type="text/css"
       id="current-color-scheme">.ColorScheme-Text {
        color:#232629;
      }</style>
  </defs>
  <g
     transform="matrix(1.0000455,0,0,1.0000455,-2.9995235,-3.0010269)"
     id="g7">
    <path
       class="ColorScheme-Text"
       fill="currentColor"
       d="m 10.998047,6 4,4 h -2 v 5 H 8.9980469 v -5 h -2 z m 5.481971,-0.4945913 -2.480469,0.298829 0.5,-0.867188 c -2.9696,-1.7145 -6.7364095,-1.027347 -8.9121085,1.623047 -2.1757,2.650394 -2.113716,6.4760703 0.146484,9.0546873 l -0.751953,0.658203 C 2.4036715,13.331512 2.3322025,8.9467147 4.8140025,5.923378 7.2958025,2.900093 11.612049,2.116066 14.999549,4.071816 l 0.5,-0.865235 z m 2.517578,5.3671883 c 0.02996,1.841775 -0.573553,3.69341 -1.814453,5.205078 -2.4819,3.023284 -6.796094,3.807312 -10.183594,1.851562 l -0.5,0.865235 -0.982422,-2.298828 2.482422,-0.298829 -0.5,0.865235 c 2.9696,1.7145 6.734457,1.029299 8.910156,-1.621094 2.1757,-2.650393 2.113715,-6.4760703 -0.146484,-9.0546873 l 0.751953,-0.658203 c 1.28915,1.470738 1.95246,3.302755 1.982422,5.1445313 z"
       id="path5" />
  </g>
</svg>
